HIERARCHY
ROOT hip
{
	OFFSET 0.000000 0.000000 0.000000 
	CHANNELS 6 Xposition Yposition Zposition Xrotation Zrotation Yrotation
	JOINT abdomen
	{
		OFFSET 0.000000 3.402643 0.000000 
		CHANNELS 3 Xrotation Zrotation Yrotation
		JOINT chest
		{
			OFFSET 0.000000 8.438565 -0.680529 
			CHANNELS 3 Xrotation Zrotation Yrotation
			JOINT neck
			{
				OFFSET 0.000000 10.207942 -0.272212 
				CHANNELS 3 Xrotation Zrotation Yrotation
				JOINT head
				{
					OFFSET 0.000000 3.130431 0.000000 
					CHANNELS 3 Xrotation Zrotation Yrotation
					End Site
					{
						OFFSET 0.000000 3.130435 0.000000 
					}
				}
			}
			JOINT lCollar
			{
				OFFSET 3.470700 6.669187 -0.816635 
				CHANNELS 3 Yrotation Zrotation Xrotation
				JOINT lShldr
				{
					OFFSET 3.198488 0.000000 0.000000 
					CHANNELS 3 Zrotation Yrotation Xrotation
					JOINT lForeArm
					{
						OFFSET 10.139888 0.000000 0.000000 
						CHANNELS 3 Yrotation Zrotation Xrotation
						JOINT lHand
						{
							OFFSET 8.370511 0.000000 0.000000 
							CHANNELS 3 Zrotation Yrotation Xrotation
							End Site
							{
								OFFSET 4.083176 0.000000 0.000000 
							}
						}
					}
				}
			}
			JOINT rCollar
			{
				OFFSET -3.470700 6.669187 -0.816635 
				CHANNELS 3 Yrotation Zrotation Xrotation
				JOINT rShldr
				{
					OFFSET -3.198488 0.000000 0.000000 
					CHANNELS 3 Zrotation Yrotation Xrotation
					JOINT rForeArm
					{
						OFFSET -10.139888 0.000000 0.000000 
						CHANNELS 3 Yrotation Zrotation Xrotation
						JOINT rHand
						{
							OFFSET -8.370511 0.000000 0.000000 
							CHANNELS 3 Zrotation Yrotation Xrotation
							End Site
							{
								OFFSET -4.083176 0.000000 0.000000 
							}
						}
					}
				}
			}
		}
	}
	JOINT lThigh
	{
		OFFSET 5.308129 -1.633274 1.361059 
		CHANNELS 3 Xrotation Zrotation Yrotation
		JOINT lShin
		{
			OFFSET -2.041588 -20.007561 0.000000 
			CHANNELS 3 Xrotation Zrotation Yrotation
			JOINT lFoot
			{
				OFFSET 0.000000 -19.190928 -1.224953 
				CHANNELS 3 Xrotation Yrotation Zrotation
				End Site
				{
					OFFSET 0.000000 -2.449906 4.627600 
				}
			}
		}
	}
	JOINT rThigh
	{
		OFFSET -5.308129 -1.633274 1.361059 
		CHANNELS 3 Xrotation Zrotation Yrotation
		JOINT rShin
		{
			OFFSET 2.041588 -20.007561 0.000000 
			CHANNELS 3 Xrotation Zrotation Yrotation
			JOINT rFoot
			{
				OFFSET 0.000000 -19.190928 -1.224953 
				CHANNELS 3 Xrotation Yrotation Zrotation
				End Site
				{
					OFFSET 0.000000 -2.449906 4.627600 
				}
			}
		}
	}
}
MOTION
Frames: 16
Frame Time: 0.016667
-0.145675 49.442474 113.235558 -7.057886 -2.359209 25.217886 24.672840 1.915637 9.693133 -24.911135 -1.351870 8.586185 -16.558592 20.990417 12.252146 5.628530 -18.841009 20.029409 1.299555 4.257592 -0.010461 -66.522934 19.193983 -109.650017 -11.550846 5.050794 104.868011 -11.580470 17.960207 -3.622453 12.402081 -1.584129 -0.009534 -11.811835 61.423119 -95.493675 79.603363 -0.694537 10.609336 -13.234663 10.023046 -2.353441 -15.722256 0.546677 -10.034612 19.660900 -1.533373 -1.935246 -4.212053 -5.887717 -12.712650 17.419264 7.839569 -16.061541 17.418346 1.588202 1.698506 -14.831419 3.935034 13.311797 
0.017361 49.276440 114.171722 -6.993304 -2.502568 25.123230 24.561922 2.076244 10.173069 -25.108276 -1.794065 8.998561 -16.960106 21.208252 12.029182 5.942818 -19.268951 19.948475 1.065265 4.755678 -0.010540 -65.253159 19.221743 -126.845123 -13.382665 4.636218 115.722816 -11.894855 19.064072 -3.945036 12.861150 -1.076393 -0.009519 -11.673989 63.795395 -98.739914 82.737389 -0.190848 1.929902 -13.132419 10.189116 -2.371848 -15.106845 0.517641 -9.930864 15.978032 -1.649737 -1.718008 -6.773640 -6.049273 -13.007174 18.111391 8.072845 -15.696290 18.036520 1.568970 1.747831 -14.418881 3.981300 13.302004 
0.187106 49.110264 115.144684 -7.017817 -2.523408 25.397203 24.481262 2.112858 10.446677 -25.202780 -2.081887 9.263709 -17.319262 21.411312 11.876966 5.686461 -19.619791 20.055304 0.918803 4.882657 -0.010560 -63.783016 19.167583 -134.097748 -14.454826 4.580987 117.453178 -10.928007 19.819437 -3.745374 13.456921 -0.666335 -0.009497 -11.783022 65.490700 -101.689011 85.257217 0.389670 -3.277534 -12.857557 10.734298 -2.443048 -14.948967 0.302819 -10.170001 15.221041 -1.669628 -1.660537 -6.615005 -7.159744 -13.133819 18.655418 8.197737 -15.749981 19.184284 1.539374 1.813716 -13.257309 4.346044 13.305852 
0.356864 48.944153 116.117676 -7.028554 -2.535268 25.671171 24.410727 2.149356 10.720647 -25.290194 -2.369229 9.529417 -17.665915 21.613688 11.737525 5.415404 -19.968996 20.175323 0.762575 5.009636 -0.010580 -62.315571 19.305084 -141.339371 -15.516232 4.498144 119.185951 -9.960807 20.569975 -3.536814 14.052692 -0.256278 -0.009473 -12.129483 67.186920 -104.844208 87.815208 0.748436 -8.507007 -12.582889 11.280416 -2.508973 -14.786039 0.089267 -10.390550 14.473140 -1.686858 -1.613100 -6.466853 -8.300874 -13.262013 19.202484 8.315331 -15.814257 20.321306 1.497233 1.905599 -12.090461 4.687204 13.279241 
0.535474 48.826843 117.109535 -7.013856 -2.371995 26.342579 24.284266 2.033687 10.797999 -25.256105 -2.483941 9.647728 -17.948021 21.559288 11.690520 4.825918 -20.023947 20.338602 0.713728 4.902222 -0.010564 -61.621933 19.095400 -140.396439 -15.474535 4.631443 115.716820 -9.137456 20.431927 -3.220716 14.472650 -0.041503 -0.009456 -12.452963 68.136864 -106.779671 89.426788 0.982383 -10.893385 -13.247447 12.613675 -2.951629 -14.906866 -0.379869 -10.950483 15.703392 -1.659292 -1.675378 -3.995448 -9.879299 -12.978339 19.235834 8.181728 -16.427574 22.319826 1.428401 2.037141 -9.363439 5.646678 13.180503 
0.714097 48.709633 118.101379 -6.995508 -2.210125 27.013788 24.168776 1.927727 10.865638 -25.222046 -2.598638 9.755898 -18.238079 21.494551 11.652590 4.236153 -20.068216 20.514328 0.655118 4.804576 -0.010549 -60.936729 18.869978 -139.448837 -15.427439 4.762869 112.253426 -8.316182 20.298939 -2.910258 14.902373 0.183035 -0.009468 -12.876811 69.083748 -108.799416 91.042404 1.157867 -13.291535 -13.943970 13.939682 -3.420926 -15.019916 -0.837769 -11.481091 16.960997 -1.618078 -1.785420 -1.517444 -11.437832 -12.623929 19.272799 8.033588 -17.042875 24.326717 1.359609 2.157591 -6.660185 6.621830 13.027886 
0.902162 48.669762 119.075012 -6.882243 -1.871877 27.965212 24.011440 1.726606 10.815584 -25.113283 -2.636826 9.795360 -18.410105 21.078199 11.691263 3.708595 -19.772369 20.578794 0.606293 4.824116 -0.010552 -61.151947 17.785606 -135.553268 -15.049734 4.894527 107.588554 -7.432713 19.698463 -2.526764 15.048799 -0.178317 -0.009431 -11.778515 69.206215 -108.291664 90.884392 1.048909 -12.093798 -15.394823 15.490147 -4.233855 -14.840309 -1.395343 -12.321795 18.316738 -1.581749 -1.842389 -1.330559 -11.926628 -12.601872 18.460751 7.446354 -18.143908 27.545254 1.236331 2.345575 -2.143365 8.071613 12.497853 
1.090231 48.629963 120.048584 -6.767599 -1.538898 28.907890 23.854715 1.525369 10.775420 -25.004574 -2.675004 9.834829 -18.584873 20.652420 11.730611 3.179037 -19.468855 20.631437 0.557470 4.853421 -0.010556 -61.450714 16.712910 -131.683228 -14.661464 5.000839 102.922867 -6.567422 19.100805 -2.165171 15.195226 -0.529903 -0.009424 -10.669902 69.322937 -107.764977 90.725838 0.946407 -10.896423 -16.876249 17.022472 -5.084480 -14.650758 -1.950487 -13.125495 19.679792 -1.552242 -1.919695 -1.148761 -12.413567 -12.598392 17.655476 6.844686 -19.229372 30.770628 1.109210 2.537519 2.387423 9.488367 11.879624 
1.282437 48.653576 120.970779 -6.613801 -1.126230 29.879356 23.769606 1.391241 10.735859 -24.976463 -2.732575 9.854794 -18.449865 20.039557 11.840417 2.989903 -19.025684 20.530493 0.752779 4.833857 -0.010553 -61.958885 14.808128 -127.314415 -14.269932 5.066322 99.294365 -6.522672 18.752628 -2.111486 14.931436 -1.242751 -0.009434 -9.071417 68.681000 -105.640678 88.091621 0.783749 -8.344695 -17.407726 15.589444 -4.814836 -14.148073 -2.401542 -13.989593 20.610615 -1.523248 -1.993200 -1.703049 -12.670118 -12.711033 16.238232 5.525855 -21.670200 35.166279 0.897749 2.787438 6.998439 11.351228 10.842018 
1.474640 48.677223 121.892899 -6.465717 -0.721086 30.842543 23.675129 1.257037 10.705875 -24.948395 -2.790138 9.874765 -18.305416 19.436695 11.951528 2.808576 -18.592398 20.424826 0.938321 4.804528 -0.010548 -62.599174 12.931050 -122.968445 -13.877052 5.101400 95.656982 -6.489001 18.413744 -2.065500 14.667648 -1.945832 -0.009442 -7.605215 68.021370 -103.645378 85.462524 0.493775 -5.803340 -17.938097 14.158397 -4.535318 -13.630362 -2.840683 -14.849745 21.542044 -1.494023 -2.037122 -2.280690 -12.968855 -12.856856 14.871596 4.129517 -24.056580 39.549194 0.678016 3.020865 11.709155 13.114696 9.666328 
1.664985 48.727806 122.753212 -6.371035 -0.307715 31.611816 23.719196 1.285907 10.686350 -25.074951 -2.905762 9.856214 -17.654215 18.935946 12.122653 3.009638 -18.246481 20.194414 1.231179 4.159946 -0.010446 -62.574955 10.800457 -118.206070 -13.258412 5.137637 92.176682 -7.845896 18.575697 -2.521514 14.169538 -2.336375 -0.009461 -7.890353 66.866653 -102.028633 80.259705 0.540407 -7.021355 -15.875701 10.358464 -3.005871 -12.804997 -2.750202 -13.557090 22.100027 -1.464517 -2.100328 -3.123551 -15.180865 -13.198751 12.907637 2.488433 -25.569796 44.505909 0.413774 3.251438 14.566599 13.022287 9.023030 
1.855312 48.778412 123.613449 -6.275145 0.098974 32.373108 23.773012 1.314780 10.667048 -25.211195 -3.021398 9.837708 -16.998535 18.426111 12.291537 3.217496 -17.899418 19.967815 1.514270 3.505601 -0.010341 -62.720417 8.681671 -113.480888 -12.635561 5.129118 88.694206 -9.211833 18.718094 -2.978324 13.681190 -2.717154 -0.009478 -8.270732 65.714630 -100.485359 75.051605 0.691922 -8.237250 -13.940236 6.501305 -1.619330 -11.971139 -2.694811 -12.271929 22.658636 -1.445012 -2.125958 -4.010051 -17.423326 -13.572219 10.986199 0.790847 -27.010048 49.450424 0.129967 3.464071 17.424784 12.882804 8.410422 
2.033398 48.840389 124.423401 -6.243552 0.491526 32.979912 23.872433 1.439953 10.579665 -25.422768 -3.099556 9.711455 -15.940245 18.135408 12.485783 3.722038 -17.657614 19.701572 1.680182 2.900105 -0.010243 -62.946491 6.790001 -105.995644 -11.660030 5.108099 82.192802 -10.606093 18.989399 -3.495963 13.241688 -3.010049 -0.009493 -9.487429 65.117752 -99.617546 69.370094 0.772267 -11.129449 -10.833306 0.755318 -0.313503 -10.979004 -2.613541 -11.995374 22.942068 -1.435313 -2.158426 -4.796963 -18.569143 -13.932767 8.786489 -0.908664 -27.809893 54.003471 -0.144078 3.633423 16.719551 10.666354 9.189269 
2.211451 48.902416 125.233353 -6.213270 0.878520 33.598259 23.971476 1.565195 10.492327 -25.631830 -3.168220 9.574943 -14.874217 17.844902 12.680365 4.230585 -17.406511 19.426435 1.846096 2.304373 -0.010145 -63.410507 4.945573 -98.535011 -10.691122 4.970438 75.687622 -11.997709 19.241529 -4.004317 12.792421 -3.293178 -0.009508 -10.698104 64.529022 -98.732803 63.708725 1.145875 -13.992421 -7.842167 -5.041876 0.683651 -9.987399 -2.547287 -11.717174 23.216394 -1.425640 -2.170909 -5.610545 -19.748955 -14.321321 6.604239 -2.615535 -28.552486 58.536232 -0.451819 3.754898 16.041918 8.468149 9.930655 
2.364961 48.992531 126.021141 -6.260789 1.258655 34.296558 24.067261 1.700953 10.248854 -25.706722 -3.064723 9.300338 -13.754057 17.653177 12.831794 4.973382 -17.130531 19.108772 1.875321 1.884446 -0.010076 -64.111694 3.165178 -87.110870 -9.979025 4.693385 66.132195 -12.223493 19.301363 -4.102927 12.616600 -3.527523 -0.009512 -11.566696 63.965214 -97.439827 59.813358 1.184625 -14.701974 -6.424972 -8.838191 0.931598 -8.804353 -2.390550 -11.936120 23.089445 -1.435305 -2.146623 -6.151444 -20.596958 -14.590839 4.471829 -4.130987 -28.899595 61.742840 -0.652808 3.839851 12.794040 4.881141 11.052895 
2.518423 49.082718 126.808937 -6.309026 1.632380 34.986988 24.160198 1.827271 10.005449 -25.780584 -2.951426 9.015497 -12.637987 17.462217 12.971112 5.712840 -16.853041 18.794371 1.894531 1.464844 -0.000250 -65.147316 1.557692 -75.673950 -9.329844 4.302937 56.598125 -12.436542 19.373093 -4.191764 12.440780 -3.761870 -0.009516 -12.444957 63.409767 -96.157249 55.917618 1.254825 -15.404753 -5.010015 -12.640265 1.079826 -7.610775 -2.232276 -12.152918 22.951637 -1.445121 -2.150998 -6.721404 -21.372604 -14.890262 2.352003 -5.642341 -29.208744 64.938637 -0.872100 3.922020 9.622118 1.214753 11.989353 
